<?xml version="1.0" encoding="UTF-8"?><svg id="b" xmlns="http://www.w3.org/2000/svg" viewBox="0 0 198 198"><g id="c"><circle cx="99" cy="99" r="99"/><path d="M114.67,50.8l-56.43-.05-8.73,8.82,65.16.03c9.96,0,18.01,7.9,18.01,17.63v82.62h9.03l.03-82.62c0-14.61-12.12-26.44-27.07-26.44ZM159.8,159.86v-82.62c0-24.33-20.21-44.14-45.13-44.14h-38.97s-8.73,8.82-8.73,8.82h47.7c19.93.01,36.09,15.86,36.09,35.33v82.62h9.04ZM114.67,68.43l-73.87-.02-8.75,8.82h.12l-.12.02v38.49c0,22.45,17.11,41.03,39.35,43.8l8.34-8.47h-2.55c-19.94-.01-36.1-15.87-36.1-35.33v-38.5h9.05l-.02,38.5c0,14.59,12.12,26.43,27.08,26.43h11.34l8.71-8.81h-20.05c-9.97,0-18.01-7.89-18.01-17.62v-38.5h8.95v38.5c.04,4.87,4.07,8.8,9.05,8.8h28.76l8.7-8.79h-37.46v-38.5h37.49v82.62h9.05v-82.62c-.03-4.87-4.06-8.82-9.05-8.82Z" style="fill:#fff;"/></g></svg>